<?xml version="1.0" standalone="no"?>
<!DOCTYPE svg PUBLIC "-//W3C//DTD SVG 20010904//EN"
 "http://www.w3.org/TR/2001/REC-SVG-20010904/DTD/svg10.dtd">
<svg version="1.0" xmlns="http://www.w3.org/2000/svg"
 width="375.000000pt" height="375.000000pt" viewBox="0 0 375.000000 375.000000"
 preserveAspectRatio="xMidYMid meet">
<metadata>
Created by potrace 1.11, written by Peter Selinger 2001-2013
</metadata>
<g transform="translate(0.000000,375.000000) scale(0.100000,-0.100000)"
fill="#000000" stroke="none">
<path d="M721 3315 c-101 -29 -182 -76 -257 -150 -116 -116 -121 -129 -301
-845 l-158 -625 0 -325 c0 -366 3 -390 74 -535 92 -186 248 -318 456 -386 62
-20 95 -23 297 -27 279 -5 345 5 493 78 208 100 354 287 398 510 8 41 18 122
22 180 3 58 8 119 11 135 l5 31 114 0 114 0 5 -31 c3 -16 8 -77 11 -135 4 -58
14 -139 22 -180 44 -223 190 -410 398 -510 152 -73 210 -83 487 -78 208 4 240
7 303 27 208 68 364 200 456 386 68 140 72 163 76 510 l4 310 -160 645 c-176
704 -187 737 -280 841 -61 69 -137 121 -228 156 -61 24 -82 27 -193 27 -111 0
-135 -3 -209 -28 -143 -47 -165 -89 -117 -221 39 -107 69 -120 198 -80 104 32
178 31 245 -3 46 -24 99 -81 118 -127 10 -23 227 -876 260 -1021 l5 -22 -73
19 c-170 44 -246 53 -457 53 -159 0 -225 -4 -295 -18 -126 -25 -243 -60 -356
-107 l-97 -40 -249 4 -248 3 -87 37 c-190 81 -360 116 -593 124 -176 6 -312
-9 -482 -52 -51 -12 -93 -21 -93 -19 0 16 253 1013 264 1038 20 47 73 104 119
128 67 34 141 35 245 3 131 -40 163 -26 202 88 42 127 19 167 -121 212 -106
35 -264 43 -348 20z m419 -1854 c112 -23 205 -54 205 -67 -2 -43 -18 -254 -21
-274 -15 -88 -62 -167 -130 -219 -73 -55 -111 -64 -295 -69 -236 -6 -314 17
-405 121 -62 70 -76 123 -78 292 -1 80 0 149 3 154 13 19 200 67 319 81 107
12 297 4 402 -19z m1985 -1 c137 -28 203 -50 207 -69 2 -9 3 -78 2 -153 -2
-161 -17 -216 -78 -285 -86 -98 -163 -123 -376 -123 -207 0 -282 22 -368 111
-71 73 -89 144 -104 413 l-2 49 69 24 c67 22 187 48 270 57 82 9 283 -4 380
-24z"/>
</g>
</svg>
